# xmcd CD database file
#
# Track frame offsets:
#	150
#	18824
#	38016
#	65252
#	83133
#
# Disc length: 1491 seconds
#
# Revision: 0
# Processed by: cddbd v1.5.1PL2 Copyright (c) Steve Scherf et al.
# Submitted via: CD2WAV32(JP) R3.22
#
DISCID=2d05d105
DTITLE=LADY - LOM
DYEAR=2000
DGENRE=Rock
TTITLE0=leave one's mark
TTITLE1=きっと・・・
TTITLE2=Destiny
TTITLE3=思考回路
TTITLE4=何色にも染まらぬ白いバラ
EXTD=
EXTT0=
EXTT1=
EXTT2=
EXTT3=
EXTT4=
PLAYORDER=
